<?xml version="1.0" encoding="utf-8"?>
<!-- Generator: Adobe Illustrator 23.0.1, SVG Export Plug-In . SVG Version: 6.00 Build 0)  -->
<svg version="1.1" id="Layer_1" xmlns="http://www.w3.org/2000/svg" xmlns:xlink="http://www.w3.org/1999/xlink" x="0px" y="0px"
	 viewBox="0 0 55 45" style="enable-background:new 0 0 55 45;" xml:space="preserve">
<style type="text/css">
	.st0{clip-path:url(#SVGID_2_);fill:#FFFFFF;}
</style>
<g>
	<defs>
		<rect id="SVGID_1_" width="55" height="45"/>
	</defs>
	<clipPath id="SVGID_2_">
		<use xlink:href="#SVGID_1_"  style="overflow:visible;"/>
	</clipPath>
	<path class="st0" d="M54,20.2L33.5,1c-1.4-1.1-4-1.5-5.6-0.3c-1.5,1.2-1.5,3.7,0,4.9l14.4,13.4H3.8c-2.1,0-3.8,1.5-3.8,3.4
		c0,1.9,1.7,3.4,3.8,3.4h38.5L27.9,39.3c-1.3,1.2-1.6,3.7,0,4.9c1.5,1.3,4.3,0.9,5.6-0.3L54,24.8c0.7-0.7,1-1.4,1-2.3
		C55,21.7,54.6,20.8,54,20.2"/>
</g>
</svg>
