<?xml version="1.0" encoding="utf-8"?>
<!-- Generator: Adobe Illustrator 23.0.1, SVG Export Plug-In . SVG Version: 6.00 Build 0)  -->
<svg version="1.1" id="Layer_1" xmlns="http://www.w3.org/2000/svg" xmlns:xlink="http://www.w3.org/1999/xlink" x="0px" y="0px"
	 viewBox="0 0 20.5 18.8" style="enable-background:new 0 0 20.5 18.8;" xml:space="preserve">
<style type="text/css">
	.st0{clip-path:url(#SVGID_2_);fill:#D8D8D8;}
	
		.st1{clip-path:url(#SVGID_2_);fill:none;stroke:#000000;stroke-width:0.75;stroke-linecap:round;stroke-linejoin:round;stroke-miterlimit:10;}
</style>
<g>
	<defs>
		<rect id="SVGID_1_" width="20.5" height="18.8"/>
	</defs>
	<clipPath id="SVGID_2_">
		<use xlink:href="#SVGID_1_"  style="overflow:visible;"/>
	</clipPath>
	<path class="st0" d="M18.7,12.4c-0.1-1.1,0.1-1.3,0.4-2.9c0.4-2.9-0.4-4.9-1.6-6.2c-1.7-0.8-2.9-1.1-4.3-1.1
		c-1.6,0-7.5,0.7-8.6,6.2l0.1,0c0,0,4.6,1,6.3-3.6c0.3-0.6,0.3-0.7,0.9-0.1c1.5,1.6,4,2.3,4,2.3l0.2,0.1c0,0,0.6,2.1,0.2,4.2
		c0,0-0.3,1.9-1.2,3.7l1.9,1.1c2.2,1.3,3.2-0.3,3.2-0.3C18.6,14.3,18.8,13.5,18.7,12.4"/>
	<path class="st0" d="M4.1,12.4c-0.2,1-0.8,2.8-2.2,4.2c0.5,0,1-0.1,1.7-0.5l1.9-0.9c-0.9-1.9-1.2-3.8-1.2-3.8S4.2,12,4.1,12.4"/>
	<path class="st0" d="M11.7,15.2c0,0.4-0.3,0.7-0.7,0.7H9.7c-0.4,0-0.7-0.3-0.7-0.7v-0.3c0-0.4,0.3-0.7,0.7-0.7h1.4
		c0.4,0,0.7,0.3,0.7,0.7V15.2z"/>
	<path class="st1" d="M11.8,15.1c4.7-0.2,5.1-4.1,5.1-4.1s0-0.9-0.4-1.3"/>
	<path class="st1" d="M8,10.4c0,0.1-0.1,0.3-0.3,0.3c-0.1,0-0.3-0.1-0.3-0.3c0-0.1,0.1-0.3,0.3-0.3C7.9,10.1,8,10.2,8,10.4z"/>
	<circle class="st1" cx="13" cy="10.4" r="0.3"/>
	<path class="st1" d="M11.7,15.2c0,0.4-0.3,0.7-0.7,0.7H9.7c-0.4,0-0.7-0.3-0.7-0.7v-0.3c0-0.4,0.3-0.7,0.7-0.7h1.4
		c0.4,0,0.7,0.3,0.7,0.7V15.2z"/>
	<path class="st1" d="M16.9,16c2.2,1.3,3.2-0.3,3.2-0.3c-1.6-1.4-1.4-2.2-1.5-3.3c-0.1-1.1,0.1-1.3,0.4-2.9c1-8.2-6.9-9.1-8.8-9.1
		c-1.9,0-9.8,0.9-8.8,9.1c0.3,1.6,0.4,1.8,0.4,2.9c0,1.1,0.1,1.9-1.5,3.3c0,0,1,1.6,3.2,0.3"/>
	<path class="st1" d="M4.6,8.4c0,0,4.6,1,6.3-3.6c0.3-0.6,0.3-0.7,0.9-0.1c1.5,1.6,4,2.3,4,2.3l0.2,0.1c0,0,0.6,2.1,0.2,4.2
		c0,0-1.1,7.1-6,7.1h-0.1c-4.9,0-5.8-7.1-5.8-7.1"/>
</g>
</svg>
