<?xml version="1.0" encoding="utf-8"?>
<!-- Generator: Adobe Illustrator 23.0.1, SVG Export Plug-In . SVG Version: 6.00 Build 0)  -->
<svg version="1.1" id="Layer_1" xmlns="http://www.w3.org/2000/svg" xmlns:xlink="http://www.w3.org/1999/xlink" x="0px" y="0px"
	 viewBox="0 0 32.3 18.8" style="enable-background:new 0 0 32.3 18.8;" xml:space="preserve">
<style type="text/css">
	.st0{clip-path:url(#SVGID_2_);fill:#D8D8D8;}
	
		.st1{clip-path:url(#SVGID_2_);fill:none;stroke:#000000;stroke-width:0.75;stroke-linecap:round;stroke-linejoin:round;stroke-miterlimit:10;}
	.st2{clip-path:url(#SVGID_2_);fill:none;stroke:#000000;stroke-width:0.75;stroke-linejoin:round;stroke-miterlimit:10;}
	.st3{clip-path:url(#SVGID_2_);fill:none;stroke:#000000;stroke-width:0.75;stroke-miterlimit:10;}
</style>
<g>
	<defs>
		<rect id="SVGID_1_" width="32.3" height="18.8"/>
	</defs>
	<clipPath id="SVGID_2_">
		<use xlink:href="#SVGID_1_"  style="overflow:visible;"/>
	</clipPath>
	<path class="st0" d="M17.9,4.6h7.7V3.3H10.9c0,0,0.6,4.6-1.7,5h-2c-0.4,0.6-0.7,1.3-1.1,2v1.2c0.1,0,0.3,0,0.4,0
		c1.1,0,2.2,0.4,3,1.2c0.2,0.2,0.2,0.6,0,0.9c-0.1,0.1-0.3,0.2-0.4,0.2c-0.2,0-0.3-0.1-0.4-0.2l-0.3,0.3c0.5,0.5,0.8,1.1,0.8,1.9H15
		c0-2.3,1.9-4.2,4.2-4.2c0.6,0,1.2,0.1,1.8,0.4c0.3,0.1,0.4,0.5,0.3,0.8c-0.1,0.3-0.5,0.5-0.8,0.3l-0.1,0.3c0.9,0.4,1.5,1.3,1.5,2.4
		h1.9c1,0,1.8-0.8,1.8-1.8l0-2.4h-1.9c-0.3,0-0.6-0.3-0.6-0.6c0-0.3,0.3-0.6,0.6-0.6h1.9l0-1.6h-4.7c-0.3,0-0.6-0.3-0.6-0.6
		s0.3-0.6,0.6-0.6h2.9l0-1.6h-5.9c-0.3,0-0.5-0.3-0.5-0.6C17.3,4.8,17.5,4.6,17.9,4.6"/>
	<path class="st0" d="M9.1,15.7c0-0.6-0.2-1.1-0.5-1.5c-0.1,0-0.3,0-0.4,0c-1.5,0-2.6,1.2-2.6,2.6c0,0.6,0.2,1.1,0.5,1.5
		c0.1,0,0.3,0,0.4,0C7.9,18.4,9.1,17.2,9.1,15.7"/>
	<path class="st0" d="M21.9,15.7c0-0.6-0.2-1.1-0.5-1.5c-0.1,0-0.3,0-0.4,0c-1.5,0-2.6,1.2-2.6,2.6c0,0.6,0.2,1.1,0.5,1.5
		c0.1,0,0.3,0,0.4,0C20.7,18.4,21.9,17.2,21.9,15.7"/>
	<path class="st1" d="M22,15.7h1.9c1,0,1.8-0.8,1.8-1.8v-2"/>
	<line class="st2" x1="11" y1="15.7" x2="15" y2="15.7"/>
	<path class="st1" d="M25.8,0.4H11.2c0,0-5.6-0.3-10.8,9.9V14c0,1,0.8,1.8,1.8,1.8h1.6"/>
	<path class="st3" d="M3.8,15.7c0,1.5,1.2,2.6,2.6,2.6s2.6-1.2,2.6-2.6c0-1.5-1.2-2.6-2.6-2.6S3.8,14.3,3.8,15.7z"/>
	<path class="st3" d="M16.6,15.7c0,1.5,1.2,2.6,2.6,2.6c1.5,0,2.6-1.2,2.6-2.6c0-1.5-1.2-2.6-2.6-2.6C17.8,13.1,16.6,14.3,16.6,15.7
		z"/>
	<path class="st1" d="M10.8,2.8v3.4c0,0,0,2.2-2.1,2.2H4.2"/>
	<line class="st1" x1="20.6" y1="3.3" x2="29.2" y2="3.3"/>
	<line class="st1" x1="23.5" y1="11.9" x2="26.4" y2="11.9"/>
	<line class="st1" x1="20.6" y1="9" x2="31.9" y2="9"/>
	<line class="st1" x1="17.6" y1="6.1" x2="24.5" y2="6.1"/>
	<line class="st1" x1="26" y1="6.1" x2="27.6" y2="6.1"/>
	<line class="st1" x1="28.1" y1="11.9" x2="29.7" y2="11.9"/>
	<line class="st1" x1="29.2" y1="6.1" x2="29.8" y2="6.1"/>
</g>
</svg>
