<?xml version="1.0" encoding="utf-8"?>
<!-- Generator: Adobe Illustrator 23.0.1, SVG Export Plug-In . SVG Version: 6.00 Build 0)  -->
<svg version="1.1" id="Layer_1" xmlns="http://www.w3.org/2000/svg" xmlns:xlink="http://www.w3.org/1999/xlink" x="0px" y="0px"
	 viewBox="0 0 64 64" style="enable-background:new 0 0 64 64;" xml:space="preserve">
<style type="text/css">
	.st0{clip-path:url(#SVGID_2_);}
	.st1{clip-path:url(#SVGID_4_);fill:url(#SVGID_5_);}
	.st2{filter:url(#Adobe_OpacityMaskFilter);}
	.st3{clip-path:url(#SVGID_7_);fill:url(#SVGID_9_);}
	.st4{clip-path:url(#SVGID_7_);mask:url(#SVGID_8_);fill:url(#SVGID_10_);}
</style>
<g>
	<defs>
		<rect id="SVGID_1_" width="64" height="64"/>
	</defs>
	<clipPath id="SVGID_2_">
		<use xlink:href="#SVGID_1_"  style="overflow:visible;"/>
	</clipPath>
	<g class="st0">
		<defs>
			<path id="SVGID_3_" d="M21.3,32c0-5.9,4.8-10.7,10.7-10.7c5.9,0,10.7,4.8,10.7,10.7S37.9,42.7,32,42.7
				C26.1,42.7,21.3,37.9,21.3,32 M15.6,32c0,9.1,7.4,16.4,16.4,16.4c9.1,0,16.4-7.4,16.4-16.4S41.1,15.6,32,15.6
				C22.9,15.6,15.6,22.9,15.6,32 M49.1,11.1c-2.1,0-3.8,1.7-3.8,3.8c0,2.1,1.7,3.8,3.8,3.8c2.1,0,3.8-1.7,3.8-3.8
				C52.9,12.8,51.2,11.1,49.1,11.1L49.1,11.1z M19.1,58c-3.1-0.1-4.8-0.7-5.9-1.1c-1.5-0.6-2.6-1.3-3.7-2.4
				c-1.1-1.1-1.8-2.2-2.4-3.7c-0.4-1.1-1-2.8-1.1-5.9C5.8,41.6,5.8,40.5,5.8,32c0-8.5,0-9.6,0.2-12.9c0.1-3.1,0.7-4.8,1.1-5.9
				c0.6-1.5,1.3-2.6,2.4-3.7c1.1-1.1,2.2-1.8,3.7-2.4c1.1-0.4,2.8-1,5.9-1.1c3.4-0.2,4.4-0.2,12.9-0.2c8.5,0,9.6,0,12.9,0.2
				c3.1,0.1,4.8,0.7,5.9,1.1c1.5,0.6,2.6,1.3,3.7,2.4c1.1,1.1,1.8,2.2,2.4,3.7c0.4,1.1,1,2.8,1.1,5.9c0.2,3.4,0.2,4.4,0.2,12.9
				c0,8.5,0,9.6-0.2,12.9c-0.1,3.1-0.7,4.8-1.1,5.9c-0.6,1.5-1.3,2.6-2.4,3.7c-1.1,1.1-2.2,1.8-3.7,2.4c-1.1,0.4-2.8,1-5.9,1.1
				c-3.4,0.2-4.4,0.2-12.9,0.2C23.5,58.2,22.4,58.2,19.1,58 M32,0c-8.7,0-9.8,0-13.2,0.2c-3.4,0.2-5.7,0.7-7.8,1.5
				C8.9,2.5,7.2,3.6,5.4,5.4C3.6,7.2,2.5,8.9,1.7,11c-0.8,2-1.3,4.4-1.5,7.8C0,22.2,0,23.3,0,32s0,9.8,0.2,13.2
				c0.2,3.4,0.7,5.7,1.5,7.8c0.8,2.1,1.9,3.9,3.7,5.7c1.8,1.8,3.6,2.9,5.7,3.7c2,0.8,4.4,1.3,7.8,1.5C22.2,64,23.3,64,32,64
				c8.7,0,9.8,0,13.2-0.2c3.4-0.2,5.7-0.7,7.8-1.5c2.1-0.8,3.9-1.9,5.7-3.7c1.8-1.8,2.9-3.6,3.7-5.7c0.8-2,1.3-4.4,1.5-7.8
				C64,41.8,64,40.7,64,32s0-9.8-0.2-13.2c-0.2-3.4-0.7-5.7-1.5-7.8c-0.8-2.1-1.9-3.9-3.7-5.7c-1.8-1.8-3.6-2.9-5.7-3.7
				c-2-0.8-4.4-1.3-7.8-1.5C41.8,0,40.7,0,32,0z"/>
		</defs>
		<clipPath id="SVGID_4_">
			<use xlink:href="#SVGID_3_"  style="overflow:visible;"/>
		</clipPath>
		
			<radialGradient id="SVGID_5_" cx="0" cy="64" r="1" gradientTransform="matrix(83.5466 0 0 83.5466 8.5028 -5282.6816)" gradientUnits="userSpaceOnUse">
			<stop  offset="0" style="stop-color:#FA8F21"/>
			<stop  offset="9.000000e-02" style="stop-color:#FA8F21"/>
			<stop  offset="0.78" style="stop-color:#D82D7E"/>
			<stop  offset="1" style="stop-color:#D82D7E"/>
		</radialGradient>
		<rect x="0" class="st1" width="64" height="64"/>
	</g>
	<g class="st0">
		<defs>
			<path id="SVGID_6_" d="M21.3,32c0-5.9,4.8-10.7,10.7-10.7c5.9,0,10.7,4.8,10.7,10.7S37.9,42.7,32,42.7
				C26.1,42.7,21.3,37.9,21.3,32 M15.6,32c0,9.1,7.4,16.4,16.4,16.4c9.1,0,16.4-7.4,16.4-16.4S41.1,15.6,32,15.6
				C22.9,15.6,15.6,22.9,15.6,32 M49.1,11.1c-2.1,0-3.8,1.7-3.8,3.8c0,2.1,1.7,3.8,3.8,3.8c2.1,0,3.8-1.7,3.8-3.8
				C52.9,12.8,51.2,11.1,49.1,11.1L49.1,11.1z M19.1,58c-3.1-0.1-4.8-0.7-5.9-1.1c-1.5-0.6-2.6-1.3-3.7-2.4
				c-1.1-1.1-1.8-2.2-2.4-3.7c-0.4-1.1-1-2.8-1.1-5.9C5.8,41.6,5.8,40.5,5.8,32c0-8.5,0-9.6,0.2-12.9c0.1-3.1,0.7-4.8,1.1-5.9
				c0.6-1.5,1.3-2.6,2.4-3.7c1.1-1.1,2.2-1.8,3.7-2.4c1.1-0.4,2.8-1,5.9-1.1c3.4-0.2,4.4-0.2,12.9-0.2c8.5,0,9.6,0,12.9,0.2
				c3.1,0.1,4.8,0.7,5.9,1.1c1.5,0.6,2.6,1.3,3.7,2.4c1.1,1.1,1.8,2.2,2.4,3.7c0.4,1.1,1,2.8,1.1,5.9c0.2,3.4,0.2,4.4,0.2,12.9
				c0,8.5,0,9.6-0.2,12.9c-0.1,3.1-0.7,4.8-1.1,5.9c-0.6,1.5-1.3,2.6-2.4,3.7c-1.1,1.1-2.2,1.8-3.7,2.4c-1.1,0.4-2.8,1-5.9,1.1
				c-3.4,0.2-4.4,0.2-12.9,0.2C23.5,58.2,22.4,58.2,19.1,58 M32,0c-8.7,0-9.8,0-13.2,0.2c-3.4,0.2-5.7,0.7-7.8,1.5
				C8.9,2.5,7.2,3.6,5.4,5.4C3.6,7.2,2.5,8.9,1.7,11c-0.8,2-1.3,4.4-1.5,7.8C0,22.2,0,23.3,0,32s0,9.8,0.2,13.2
				c0.2,3.4,0.7,5.7,1.5,7.8c0.8,2.1,1.9,3.9,3.7,5.7c1.8,1.8,3.6,2.9,5.7,3.7c2,0.8,4.4,1.3,7.8,1.5C22.2,64,23.3,64,32,64
				c8.7,0,9.8,0,13.2-0.2c3.4-0.2,5.7-0.7,7.8-1.5c2.1-0.8,3.9-1.9,5.7-3.7c1.8-1.8,2.9-3.6,3.7-5.7c0.8-2,1.3-4.4,1.5-7.8
				C64,41.8,64,40.7,64,32s0-9.8-0.2-13.2c-0.2-3.4-0.7-5.7-1.5-7.8c-0.8-2.1-1.9-3.9-3.7-5.7c-1.8-1.8-3.6-2.9-5.7-3.7
				c-2-0.8-4.4-1.3-7.8-1.5C41.8,0,40.7,0,32,0z"/>
		</defs>
		<clipPath id="SVGID_7_">
			<use xlink:href="#SVGID_6_"  style="overflow:visible;"/>
		</clipPath>
		<defs>
			<filter id="Adobe_OpacityMaskFilter" filterUnits="userSpaceOnUse" x="0" y="0" width="64" height="64">
				<feColorMatrix  type="matrix" values="1 0 0 0 0  0 1 0 0 0  0 0 1 0 0  0 0 0 1 0"/>
			</filter>
		</defs>
		<mask maskUnits="userSpaceOnUse" x="0" y="0" width="64" height="64" id="SVGID_8_">
			<g class="st2">
				
					<radialGradient id="SVGID_9_" cx="0" cy="64" r="1" gradientTransform="matrix(65.8463 0 0 65.8463 38.8132 -4146.9922)" gradientUnits="userSpaceOnUse">
					<stop  offset="0" style="stop-color:#000000"/>
					<stop  offset="0.64" style="stop-color:#000000"/>
					<stop  offset="1" style="stop-color:#FFFFFF"/>
				</radialGradient>
				<rect x="0" y="0" class="st3" width="64" height="64"/>
			</g>
		</mask>
		
			<radialGradient id="SVGID_10_" cx="0" cy="64" r="1" gradientTransform="matrix(65.8463 0 0 65.8463 38.8132 -4146.9922)" gradientUnits="userSpaceOnUse">
			<stop  offset="0" style="stop-color:#8C3AAA"/>
			<stop  offset="0.64" style="stop-color:#8C3AAA"/>
			<stop  offset="1" style="stop-color:#8C3AAA"/>
		</radialGradient>
		<rect x="0" y="0" class="st4" width="64" height="64"/>
	</g>
</g>
</svg>
