<?xml version="1.0" encoding="utf-8"?>
<!-- Generator: Adobe Illustrator 23.0.1, SVG Export Plug-In . SVG Version: 6.00 Build 0)  -->
<svg version="1.1" id="Layer_1" xmlns="http://www.w3.org/2000/svg" xmlns:xlink="http://www.w3.org/1999/xlink" x="0px" y="0px"
	 viewBox="0 0 18.8 18.8" style="enable-background:new 0 0 18.8 18.8;" xml:space="preserve">
<style type="text/css">
	.st0{clip-path:url(#SVGID_4_);fill:#D8D8D8;}
	
		.st1{clip-path:url(#SVGID_4_);fill:none;stroke:#000000;stroke-width:0.75;stroke-linecap:round;stroke-linejoin:round;stroke-miterlimit:10;}
</style>
<g>
	<defs>
		<rect id="SVGID_1_" width="18.8" height="18.8"/>
	</defs>
	<clipPath id="SVGID_2_">
		<use xlink:href="#SVGID_1_"  style="overflow:visible;"/>
	</clipPath>
</g>
<g>
	<defs>
		<rect id="SVGID_3_" width="18.8" height="18.8"/>
	</defs>
	<clipPath id="SVGID_4_">
		<use xlink:href="#SVGID_3_"  style="overflow:visible;"/>
	</clipPath>
	<path class="st0" d="M13.4,1.3c0.8,1.3,1.3,2.9,1.3,4.6c0,5-4,9-9,9c-1.4,0-2.8-0.3-4-0.9c1.6,2.6,4.4,4.4,7.7,4.4c5,0,9-4,9-9
		C18.4,5.8,16.4,2.8,13.4,1.3"/>
	<path class="st1" d="M18.4,9.4c0,5-4,9-9,9c-5,0-9-4-9-9s4-9,9-9C14.4,0.4,18.4,4.4,18.4,9.4z"/>
	<path class="st1" d="M7,11.7c0,1.2,1.1,2.2,2.4,2.2c1.3,0,2.4-1,2.4-2.2s-1.3-1.8-2.4-2.3C8.3,8.8,7,8.3,7,7c0-1.2,1.1-2.2,2.4-2.2
		s2.4,1,2.4,2.2"/>
	<line class="st1" x1="9.4" y1="4.8" x2="9.4" y2="3.4"/>
	<line class="st1" x1="9.4" y1="15.4" x2="9.4" y2="13.9"/>
</g>
</svg>
