<svg version="1.1" id="Layer_1" xmlns="http://www.w3.org/2000/svg" xmlns:xlink="http://www.w3.org/1999/xlink" x="0" y="0" viewBox="0 0 20.5 18.8" xml:space="preserve"><style>.st1{clip-path:url(#SVGID_2_);fill:none;stroke:#000;stroke-width:.75;stroke-linecap:round;stroke-linejoin:round;stroke-miterlimit:10}</style><defs><path id="SVGID_1_" d="M0 0h20.5v18.8H0z"/></defs><clipPath id="SVGID_2_"><use xlink:href="#SVGID_1_" overflow="visible"/></clipPath><path d="M18.7 12.4c-.1-1.1.1-1.3.4-2.9.4-2.9-.4-4.9-1.6-6.2-1.7-.8-2.9-1.1-4.3-1.1-1.6 0-7.5.7-8.6 6.2h.1s4.6 1 6.3-3.6c.3-.6.3-.7.9-.1 1.5 1.6 4 2.3 4 2.3l.2.1s.6 2.1.2 4.2c0 0-.3 1.9-1.2 3.7l1.9 1.1c2.2 1.3 3.2-.3 3.2-.3-1.6-1.5-1.4-2.3-1.5-3.4m-14.6 0c-.2 1-.8 2.8-2.2 4.2.5 0 1-.1 1.7-.5l1.9-.9c-.9-1.9-1.2-3.8-1.2-3.8s-.1.6-.2 1m7.6 2.8c0 .4-.3.7-.7.7H9.7c-.4 0-.7-.3-.7-.7v-.3c0-.4.3-.7.7-.7h1.4c.4 0 .7.3.7.7v.3z" clip-path="url(#SVGID_2_)" fill="#d8d8d8"/><path class="st1" d="M11.8 15.1c4.7-.2 5.1-4.1 5.1-4.1s0-.9-.4-1.3m-8.5.7c0 .1-.1.3-.3.3-.1 0-.3-.1-.3-.3 0-.1.1-.3.3-.3.2 0 .3.1.3.3z"/><circle class="st1" cx="13" cy="10.4" r=".3"/><path class="st1" d="M11.7 15.2c0 .4-.3.7-.7.7H9.7c-.4 0-.7-.3-.7-.7v-.3c0-.4.3-.7.7-.7h1.4c.4 0 .7.3.7.7v.3z"/><path class="st1" d="M16.9 16c2.2 1.3 3.2-.3 3.2-.3-1.6-1.4-1.4-2.2-1.5-3.3-.1-1.1.1-1.3.4-2.9C20 1.3 12.1.4 10.2.4 8.3.4.4 1.3 1.4 9.5c.3 1.6.4 1.8.4 2.9 0 1.1.1 1.9-1.5 3.3 0 0 1 1.6 3.2.3"/><path class="st1" d="M4.6 8.4s4.6 1 6.3-3.6c.3-.6.3-.7.9-.1 1.5 1.6 4 2.3 4 2.3l.2.1s.6 2.1.2 4.2c0 0-1.1 7.1-6 7.1h-.1c-4.9 0-5.8-7.1-5.8-7.1"/></svg>