<svg version="1.1" id="Layer_1" xmlns="http://www.w3.org/2000/svg" xmlns:xlink="http://www.w3.org/1999/xlink" x="0" y="0" viewBox="0 0 32.3 18.8" xml:space="preserve"><style>.st0,.st1{clip-path:url(#SVGID_2_);fill:#d8d8d8}.st1{stroke-linecap:round;stroke-linejoin:round;fill:none;stroke:#000;stroke-width:.75;stroke-miterlimit:10}</style><defs><path id="SVGID_1_" d="M0 0h32.3v18.8H0z"/></defs><clipPath id="SVGID_2_"><use xlink:href="#SVGID_1_" overflow="visible"/></clipPath><path class="st0" d="M17.9 4.6h7.7V3.3H10.9s.6 4.6-1.7 5h-2c-.4.6-.7 1.3-1.1 2v1.2h.4c1.1 0 2.2.4 3 1.2.2.2.2.6 0 .9-.1.1-.3.2-.4.2-.2 0-.3-.1-.4-.2l-.3.3c.5.5.8 1.1.8 1.9H15c0-2.3 1.9-4.2 4.2-4.2.6 0 1.2.1 1.8.4.3.1.4.5.3.8-.1.3-.5.5-.8.3l-.1.3c.9.4 1.5 1.3 1.5 2.4h1.9c1 0 1.8-.8 1.8-1.8v-2.4h-1.9c-.3 0-.6-.3-.6-.6s.3-.6.6-.6h1.9V8.8h-4.7c-.3 0-.6-.3-.6-.6s.3-.6.6-.6h2.9V6h-5.9c-.3 0-.5-.3-.5-.6-.1-.6.1-.8.5-.8"/><path class="st0" d="M9.1 15.7c0-.6-.2-1.1-.5-1.5h-.4c-1.5 0-2.6 1.2-2.6 2.6 0 .6.2 1.1.5 1.5h.4c1.4.1 2.6-1.1 2.6-2.6m12.8 0c0-.6-.2-1.1-.5-1.5H21c-1.5 0-2.6 1.2-2.6 2.6 0 .6.2 1.1.5 1.5h.4c1.4.1 2.6-1.1 2.6-2.6"/><path class="st1" d="M22 15.7h1.9c1 0 1.8-.8 1.8-1.8v-2"/><path clip-path="url(#SVGID_2_)" fill="none" stroke="#000" stroke-width=".75" stroke-linejoin="round" stroke-miterlimit="10" d="M11 15.7h4"/><path class="st1" d="M25.8.4H11.2S5.6.1.4 10.3V14c0 1 .8 1.8 1.8 1.8h1.6"/><path d="M3.8 15.7c0 1.5 1.2 2.6 2.6 2.6S9 17.1 9 15.7c0-1.5-1.2-2.6-2.6-2.6s-2.6 1.2-2.6 2.6zm12.8 0c0 1.5 1.2 2.6 2.6 2.6 1.5 0 2.6-1.2 2.6-2.6 0-1.5-1.2-2.6-2.6-2.6-1.4 0-2.6 1.2-2.6 2.6z" clip-path="url(#SVGID_2_)" fill="none" stroke="#000" stroke-width=".75" stroke-miterlimit="10"/><path class="st1" d="M10.8 2.8v3.4s0 2.2-2.1 2.2H4.2m16.4-5.1h8.6m-5.7 8.6h2.9M20.6 9h11.3M17.6 6.1h6.9m1.5 0h1.6m.5 5.8h1.6m-.5-5.8h.6"/></svg>