<svg version="1.1" id="Layer_1" xmlns="http://www.w3.org/2000/svg" xmlns:xlink="http://www.w3.org/1999/xlink" x="0" y="0" viewBox="0 0 64 64" xml:space="preserve" enable-background="new 0 0 64 64"><style>.st0{clip-path:url(#SVGID_2_)}</style><defs><path id="SVGID_1_" d="M0 0h64v64H0z"/></defs><clipPath id="SVGID_2_"><use xlink:href="#SVGID_1_" overflow="visible"/></clipPath><g class="st0"><defs><path id="SVGID_3_" d="M21.3 32c0-5.9 4.8-10.7 10.7-10.7 5.9 0 10.7 4.8 10.7 10.7S37.9 42.7 32 42.7c-5.9 0-10.7-4.8-10.7-10.7m-5.7 0c0 9.1 7.4 16.4 16.4 16.4 9.1 0 16.4-7.4 16.4-16.4S41.1 15.6 32 15.6c-9.1 0-16.4 7.3-16.4 16.4m33.5-20.9c-2.1 0-3.8 1.7-3.8 3.8 0 2.1 1.7 3.8 3.8 3.8 2.1 0 3.8-1.7 3.8-3.8 0-2.1-1.7-3.8-3.8-3.8zM19.1 58c-3.1-.1-4.8-.7-5.9-1.1-1.5-.6-2.6-1.3-3.7-2.4-1.1-1.1-1.8-2.2-2.4-3.7-.4-1.1-1-2.8-1.1-5.9-.2-3.3-.2-4.4-.2-12.9s0-9.6.2-12.9c.1-3.1.7-4.8 1.1-5.9.6-1.5 1.3-2.6 2.4-3.7 1.1-1.1 2.2-1.8 3.7-2.4 1.1-.4 2.8-1 5.9-1.1 3.4-.2 4.4-.2 12.9-.2s9.6 0 12.9.2c3.1.1 4.8.7 5.9 1.1 1.5.6 2.6 1.3 3.7 2.4 1.1 1.1 1.8 2.2 2.4 3.7.4 1.1 1 2.8 1.1 5.9.2 3.4.2 4.4.2 12.9s0 9.6-.2 12.9c-.1 3.1-.7 4.8-1.1 5.9-.6 1.5-1.3 2.6-2.4 3.7-1.1 1.1-2.2 1.8-3.7 2.4-1.1.4-2.8 1-5.9 1.1-3.4.2-4.4.2-12.9.2s-9.6 0-12.9-.2M32 0c-8.7 0-9.8 0-13.2.2-3.4.2-5.7.7-7.8 1.5-2.1.8-3.8 1.9-5.6 3.7C3.6 7.2 2.5 8.9 1.7 11 .9 13 .4 15.4.2 18.8 0 22.2 0 23.3 0 32s0 9.8.2 13.2c.2 3.4.7 5.7 1.5 7.8.8 2.1 1.9 3.9 3.7 5.7 1.8 1.8 3.6 2.9 5.7 3.7 2 .8 4.4 1.3 7.8 1.5 3.3.1 4.4.1 13.1.1s9.8 0 13.2-.2c3.4-.2 5.7-.7 7.8-1.5 2.1-.8 3.9-1.9 5.7-3.7 1.8-1.8 2.9-3.6 3.7-5.7.8-2 1.3-4.4 1.5-7.8.1-3.3.1-4.4.1-13.1s0-9.8-.2-13.2c-.2-3.4-.7-5.7-1.5-7.8-.8-2.1-1.9-3.9-3.7-5.7-1.8-1.8-3.6-2.9-5.7-3.7-2-.8-4.4-1.3-7.8-1.5C41.8 0 40.7 0 32 0z"/></defs><clipPath id="SVGID_4_"><use xlink:href="#SVGID_3_" overflow="visible"/></clipPath><radialGradient id="SVGID_5_" cx="0" cy="64" r="1" gradientTransform="translate(8.503 -5282.682) scale(83.5466)" gradientUnits="userSpaceOnUse"><stop offset="0" stop-color="#fa8f21"/><stop offset=".09" stop-color="#fa8f21"/><stop offset=".78" stop-color="#d82d7e"/><stop offset="1" stop-color="#d82d7e"/></radialGradient><path clip-path="url(#SVGID_4_)" fill="url(#SVGID_5_)" d="M0 0h64v64H0z"/></g><g class="st0"><defs><path id="SVGID_6_" d="M21.3 32c0-5.9 4.8-10.7 10.7-10.7 5.9 0 10.7 4.8 10.7 10.7S37.9 42.7 32 42.7c-5.9 0-10.7-4.8-10.7-10.7m-5.7 0c0 9.1 7.4 16.4 16.4 16.4 9.1 0 16.4-7.4 16.4-16.4S41.1 15.6 32 15.6c-9.1 0-16.4 7.3-16.4 16.4m33.5-20.9c-2.1 0-3.8 1.7-3.8 3.8 0 2.1 1.7 3.8 3.8 3.8 2.1 0 3.8-1.7 3.8-3.8 0-2.1-1.7-3.8-3.8-3.8zM19.1 58c-3.1-.1-4.8-.7-5.9-1.1-1.5-.6-2.6-1.3-3.7-2.4-1.1-1.1-1.8-2.2-2.4-3.7-.4-1.1-1-2.8-1.1-5.9-.2-3.3-.2-4.4-.2-12.9s0-9.6.2-12.9c.1-3.1.7-4.8 1.1-5.9.6-1.5 1.3-2.6 2.4-3.7 1.1-1.1 2.2-1.8 3.7-2.4 1.1-.4 2.8-1 5.9-1.1 3.4-.2 4.4-.2 12.9-.2s9.6 0 12.9.2c3.1.1 4.8.7 5.9 1.1 1.5.6 2.6 1.3 3.7 2.4 1.1 1.1 1.8 2.2 2.4 3.7.4 1.1 1 2.8 1.1 5.9.2 3.4.2 4.4.2 12.9s0 9.6-.2 12.9c-.1 3.1-.7 4.8-1.1 5.9-.6 1.5-1.3 2.6-2.4 3.7-1.1 1.1-2.2 1.8-3.7 2.4-1.1.4-2.8 1-5.9 1.1-3.4.2-4.4.2-12.9.2s-9.6 0-12.9-.2M32 0c-8.7 0-9.8 0-13.2.2-3.4.2-5.7.7-7.8 1.5-2.1.8-3.8 1.9-5.6 3.7C3.6 7.2 2.5 8.9 1.7 11 .9 13 .4 15.4.2 18.8 0 22.2 0 23.3 0 32s0 9.8.2 13.2c.2 3.4.7 5.7 1.5 7.8.8 2.1 1.9 3.9 3.7 5.7 1.8 1.8 3.6 2.9 5.7 3.7 2 .8 4.4 1.3 7.8 1.5 3.3.1 4.4.1 13.1.1s9.8 0 13.2-.2c3.4-.2 5.7-.7 7.8-1.5 2.1-.8 3.9-1.9 5.7-3.7 1.8-1.8 2.9-3.6 3.7-5.7.8-2 1.3-4.4 1.5-7.8.1-3.3.1-4.4.1-13.1s0-9.8-.2-13.2c-.2-3.4-.7-5.7-1.5-7.8-.8-2.1-1.9-3.9-3.7-5.7-1.8-1.8-3.6-2.9-5.7-3.7-2-.8-4.4-1.3-7.8-1.5C41.8 0 40.7 0 32 0z"/></defs><clipPath id="SVGID_7_"><use xlink:href="#SVGID_6_" overflow="visible"/></clipPath><defs><filter id="Adobe_OpacityMaskFilter" filterUnits="userSpaceOnUse" x="0" y="0" width="64" height="64"><feColorMatrix values="1 0 0 0 0 0 1 0 0 0 0 0 1 0 0 0 0 0 1 0"/></filter></defs><mask maskUnits="userSpaceOnUse" x="0" y="0" width="64" height="64" id="SVGID_8_"><g filter="url(#Adobe_OpacityMaskFilter)"><radialGradient id="SVGID_9_" cx="0" cy="64" r="1" gradientTransform="translate(38.813 -4146.992) scale(65.8463)" gradientUnits="userSpaceOnUse"><stop offset="0"/><stop offset=".64"/><stop offset="1" stop-color="#fff"/></radialGradient><path clip-path="url(#SVGID_7_)" fill="url(#SVGID_9_)" d="M0 0h64v64H0z"/></g></mask><radialGradient id="SVGID_10_" cx="0" cy="64" r="1" gradientTransform="translate(38.813 -4146.992) scale(65.8463)" gradientUnits="userSpaceOnUse"><stop offset="0" stop-color="#8c3aaa"/><stop offset=".64" stop-color="#8c3aaa"/><stop offset="1" stop-color="#8c3aaa"/></radialGradient><path clip-path="url(#SVGID_7_)" mask="url(#SVGID_8_)" fill="url(#SVGID_10_)" d="M0 0h64v64H0z"/></g></svg>