<svg version="1.1" id="Layer_1" xmlns="http://www.w3.org/2000/svg" xmlns:xlink="http://www.w3.org/1999/xlink" x="0" y="0" viewBox="0 0 18.8 18.8" xml:space="preserve"><style>.st1{clip-path:url(#SVGID_4_);fill:none;stroke:#000;stroke-width:.75;stroke-linecap:round;stroke-linejoin:round;stroke-miterlimit:10}</style><defs><path id="SVGID_1_" d="M0 0h18.8v18.8H0z"/></defs><clipPath id="SVGID_2_"><use xlink:href="#SVGID_1_" overflow="visible"/></clipPath><defs><path id="SVGID_3_" d="M0 0h18.8v18.8H0z"/></defs><clipPath id="SVGID_4_"><use xlink:href="#SVGID_3_" overflow="visible"/></clipPath><path d="M13.4 1.3c.8 1.3 1.3 2.9 1.3 4.6 0 5-4 9-9 9-1.4 0-2.8-.3-4-.9 1.6 2.6 4.4 4.4 7.7 4.4 5 0 9-4 9-9 0-3.6-2-6.6-5-8.1" clip-path="url(#SVGID_4_)" fill="#d8d8d8"/><path class="st1" d="M18.4 9.4c0 5-4 9-9 9s-9-4-9-9 4-9 9-9 9 4 9 9z"/><path class="st1" d="M7 11.7c0 1.2 1.1 2.2 2.4 2.2 1.3 0 2.4-1 2.4-2.2s-1.3-1.8-2.4-2.3C8.3 8.8 7 8.3 7 7c0-1.2 1.1-2.2 2.4-2.2s2.4 1 2.4 2.2M9.4 4.8V3.4m0 12v-1.5"/></svg>